<?xml version="1.0" encoding="UTF-8"?>
<svg xmlns="http://www.w3.org/2000/svg" viewBox="0 0 100 100" fill="none" aria-hidden="true">
  <title>Watchtower</title>
  <!-- Panopticon-inspired mark: dodecagon ring, inner watch core, twelve radials; Are.na brutalist mono -->
  <g
    stroke="currentColor"
    stroke-width="2.25"
    stroke-linejoin="miter"
    stroke-linecap="butt"
    vector-effect="non-scaling-stroke"
  >
    <path
      d="M 50 10 L 70 15.359 L 84.641 30 L 90 50 L 84.641 70 L 70 84.641 L 50 90 L 30 84.641 L 15.359 70 L 10 50 L 15.359 30 L 30 15.359 Z"
    />
    <path
      d="M 50 36 L 57 37.876 L 62.124 43 L 64 50 L 62.124 57 L 57 62.124 L 50 64 L 43 62.124 L 37.876 57 L 36 50 L 37.876 43 L 43 37.876 Z"
    />
    <circle
      cx="50"
      cy="50"
      r="26"
      fill="none"
      stroke-dasharray="2.2 3.2"
      stroke-width="1.2"
      opacity="0.45"
    />
    <path d="M 50 36 L 50 10" />
    <path d="M 57 37.876 L 70 15.359" />
    <path d="M 62.124 43 L 84.641 30" />
    <path d="M 64 50 L 90 50" />
    <path d="M 62.124 57 L 84.641 70" />
    <path d="M 57 62.124 L 70 84.641" />
    <path d="M 50 64 L 50 90" />
    <path d="M 43 62.124 L 30 84.641" />
    <path d="M 37.876 57 L 15.359 70" />
    <path d="M 36 50 L 10 50" />
    <path d="M 37.876 43 L 15.359 30" />
    <path d="M 43 37.876 L 30 15.359" />
  </g>
</svg>
